<svg width="24" height="19" viewBox="0 0 24 19" fill="none" xmlns="http://www.w3.org/2000/svg">
<path d="M22.86 5.85558C22.6908 5.70806 22.4816 5.61415 22.2589 5.58578C22.0362 5.5574 21.8102 5.59584 21.6094 5.69621L16.9022 8.03996L12.9722 1.51215C12.8712 1.34464 12.7286 1.20608 12.5582 1.10989C12.3879 1.01371 12.1956 0.963165 12 0.963165C11.8044 0.963165 11.6121 1.01371 11.4418 1.10989C11.2714 1.20608 11.1288 1.34464 11.0278 1.51215L7.09781 8.04277L2.3925 5.69902C2.19219 5.59954 1.96697 5.56144 1.74509 5.5895C1.52321 5.61755 1.31455 5.71052 1.14531 5.85672C0.976076 6.00293 0.853789 6.19587 0.7938 6.41132C0.733812 6.62677 0.738794 6.85514 0.808121 7.06777L4.27687 17.6953C4.31175 17.802 4.37016 17.8996 4.44779 17.9808C4.52542 18.0619 4.62029 18.1246 4.7254 18.1642C4.83051 18.2038 4.94317 18.2193 5.05506 18.2095C5.16695 18.1998 5.27522 18.165 5.37187 18.1078C5.39531 18.0937 7.7925 16.7128 12 16.7128C16.2075 16.7128 18.6047 18.0937 18.6262 18.1068C18.7229 18.1646 18.8314 18.1999 18.9436 18.21C19.0557 18.2201 19.1687 18.2048 19.2742 18.1653C19.3797 18.1257 19.4749 18.063 19.5527 17.9816C19.6306 17.9002 19.6892 17.8024 19.7241 17.6953L23.1928 7.07058C23.2641 6.85789 23.2706 6.62879 23.2113 6.41244C23.152 6.19608 23.0297 6.00224 22.86 5.85558ZM18.5625 16.4156C17.4375 15.9384 15.195 15.2128 12 15.2128C8.805 15.2128 6.5625 15.9384 5.4375 16.4156L2.50406 7.43152L6.72937 9.53808C6.98513 9.66421 7.27884 9.68999 7.55266 9.61034C7.82648 9.53069 8.06054 9.3514 8.20875 9.10777L12 2.80589L15.7912 9.1059C15.9396 9.34912 16.1735 9.52812 16.447 9.60774C16.7206 9.68735 17.014 9.66184 17.2697 9.53621L21.4959 7.43152L18.5625 16.4156ZM16.4878 13.4156C16.4572 13.5891 16.3665 13.7463 16.2316 13.8596C16.0967 13.9729 15.9262 14.0351 15.75 14.0353C15.706 14.0352 15.6621 14.0314 15.6187 14.024C13.2231 13.6128 10.775 13.6128 8.37937 14.024C8.18344 14.0586 7.98181 14.0139 7.81883 13.8998C7.65585 13.7857 7.54487 13.6115 7.51031 13.4156C7.47575 13.2197 7.52043 13.018 7.63454 12.855C7.74864 12.6921 7.92282 12.5811 8.11875 12.5465C10.6868 12.1053 13.3113 12.1053 15.8794 12.5465C16.0749 12.5809 16.2489 12.6913 16.3631 12.8537C16.4773 13.0161 16.5225 13.2171 16.4887 13.4128L16.4878 13.4156Z" fill="white"/>
</svg>
