<svg width="16" height="4" viewBox="0 0 16 4" fill="none" xmlns="http://www.w3.org/2000/svg">
<path d="M2 1.52588e-05C0.9 1.52588e-05 0 0.900015 0 2.00002C0 3.10002 0.9 4.00002 2 4.00002C3.1 4.00002 4 3.10002 4 2.00002C4 0.900015 3.1 1.52588e-05 2 1.52588e-05ZM14 1.52588e-05C12.9 1.52588e-05 12 0.900015 12 2.00002C12 3.10002 12.9 4.00002 14 4.00002C15.1 4.00002 16 3.10002 16 2.00002C16 0.900015 15.1 1.52588e-05 14 1.52588e-05ZM8 1.52588e-05C6.9 1.52588e-05 6 0.900015 6 2.00002C6 3.10002 6.9 4.00002 8 4.00002C9.1 4.00002 10 3.10002 10 2.00002C10 0.900015 9.1 1.52588e-05 8 1.52588e-05Z" fill="white"/>
</svg>
