<svg width="17" height="19" viewBox="0 0 17 19" fill="none" xmlns="http://www.w3.org/2000/svg">
<path d="M2.56242 0.666664C1.46992 0.666664 0.583252 1.6 0.583252 2.75V4.68666C0.583674 5.13223 0.697214 5.56958 0.912121 5.95345C1.12703 6.33732 1.43549 6.65375 1.80559 6.87L6.35925 9.535C5.40545 10.0419 4.64184 10.8724 4.19181 11.8925C3.74178 12.9125 3.63161 14.0625 3.8791 15.1566C4.12659 16.2507 4.71729 17.225 5.55575 17.9222C6.39421 18.6193 7.43146 18.9985 8.49992 18.9985C9.56838 18.9985 10.6056 18.6193 11.4441 17.9222C12.2825 17.225 12.8732 16.2507 13.1207 15.1566C13.3682 14.0625 13.2581 12.9125 12.808 11.8925C12.358 10.8724 11.5944 10.0419 10.6406 9.535L15.1958 6.87166C15.5659 6.65506 15.8742 6.33827 16.0888 5.9541C16.3034 5.56993 16.4166 5.13235 16.4166 4.68666V2.75C16.4166 1.6 15.5299 0.666664 14.4374 0.666664H2.56242ZM2.16659 2.75C2.16659 2.63949 2.20829 2.53351 2.28252 2.45537C2.35676 2.37723 2.45744 2.33333 2.56242 2.33333H5.33325V7.02833L2.5735 5.415C2.45016 5.3428 2.34739 5.2372 2.27585 5.10914C2.2043 4.98109 2.16658 4.83522 2.16659 4.68666V2.75ZM6.91658 7.95333V2.33333H10.0833V7.95333L8.49992 8.88L6.91658 7.95333ZM11.6666 7.02833V2.33333H14.4374C14.5424 2.33333 14.6431 2.37723 14.7173 2.45537C14.7915 2.53351 14.8333 2.63949 14.8333 2.75V4.68666C14.8333 4.83522 14.7955 4.98109 14.724 5.10914C14.6524 5.2372 14.5497 5.3428 14.4263 5.415L11.6666 7.02833ZM11.6666 14C11.6666 14.8841 11.333 15.7319 10.7391 16.357C10.1452 16.9821 9.33977 17.3333 8.49992 17.3333C7.66007 17.3333 6.85461 16.9821 6.26075 16.357C5.66688 15.7319 5.33325 14.8841 5.33325 14C5.33325 13.1159 5.66688 12.2681 6.26075 11.643C6.85461 11.0179 7.66007 10.6667 8.49992 10.6667C9.33977 10.6667 10.1452 11.0179 10.7391 11.643C11.333 12.2681 11.6666 13.1159 11.6666 14Z" fill="white"/>
</svg>
