<svg width="20" height="16" viewBox="0 0 20 16" fill="none" xmlns="http://www.w3.org/2000/svg">
<path d="M11.9338 5.5C11.9338 6.05 11.4838 6.5 10.9338 6.5H1.93384C1.38384 6.5 0.933838 6.05 0.933838 5.5C0.933838 4.95 1.38384 4.5 1.93384 4.5H10.9338C11.4838 4.5 11.9338 4.95 11.9338 5.5ZM0.933838 1.5C0.933838 2.05 1.38384 2.5 1.93384 2.5H10.9338C11.4838 2.5 11.9338 2.05 11.9338 1.5C11.9338 0.95 11.4838 0.5 10.9338 0.5H1.93384C1.38384 0.5 0.933838 0.95 0.933838 1.5ZM7.93384 9.5C7.93384 8.95 7.48384 8.5 6.93384 8.5H1.93384C1.38384 8.5 0.933838 8.95 0.933838 9.5C0.933838 10.05 1.38384 10.5 1.93384 10.5H6.93384C7.48384 10.5 7.93384 10.05 7.93384 9.5ZM15.9438 7.37L16.6538 6.66C17.0438 6.27 17.6738 6.27 18.0638 6.66L18.7738 7.37C19.1638 7.76 19.1638 8.39 18.7738 8.78L18.0638 9.49L15.9438 7.37ZM15.2338 8.08L10.0738 13.24C9.98384 13.33 9.93384 13.45 9.93384 13.59V15C9.93384 15.28 10.1538 15.5 10.4338 15.5H11.8438C11.9738 15.5 12.1038 15.45 12.1938 15.35L17.3538 10.19L15.2338 8.08Z" fill="black"/>
</svg>
